<?xml version="1.0" encoding="UTF-8" standalone="no"?>
<!-- Created with Inkscape (http://www.inkscape.org/) -->

<svg
   width="512"
   height="512"
   viewBox="0 0 512 512"
   version="1.1"
   id="svg1"
   xmlns="http://www.w3.org/2000/svg"
   xmlns:svg="http://www.w3.org/2000/svg">
  <defs
     id="defs1" />
  <g
     id="layer1">
    <g
       id="g3"
       transform="matrix(1.0992167,0,0,1.140113,-26.266913,-25.892522)">
      <path
         style="font-size:434.694px;font-family:'Bebas Neue';-inkscape-font-specification:'Bebas Neue';letter-spacing:0px;stroke-width:1.08674"
         d="m 247.81327,181.48529 h 72.1592 q 36.94899,0 53.90206,17.38776 16.95306,16.95306 16.95306,52.59797 v 12.17143 q 0,23.47348 -7.82449,38.25308 -7.3898,14.77959 -23.03878,21.3 v 0.86939 q 35.64491,12.17143 35.64491,63.46532 v 26.08164 q 0,35.21022 -18.69184,53.90206 -18.25715,18.25715 -53.90206,18.25715 h -75.20206 z m 66.50818,123.88779 q 14.3449,0 21.30001,-7.3898 7.38979,-7.3898 7.38979,-24.77756 v -16.95306 q 0,-16.51838 -6.08571,-23.90817 -5.65102,-7.3898 -18.25715,-7.3898 h -23.03878 v 80.41839 z m 8.69388,136.92861 q 12.60613,0 18.69184,-6.52041 6.08572,-6.95511 6.08572,-23.47348 v -26.51633 q 0,-20.86531 -7.3898,-28.68981 -6.9551,-8.25918 -23.47348,-8.25918 h -21.3 v 93.45921 z"
         id="text1-7"
         transform="scale(1.0867362,0.92018652)"
         aria-label="B" />
      <path
         id="text2"
         style="-inkscape-font-specification:'Bebas Neue';fill:#268bd2;stroke-width:1.11175"
         d="M 85.441477,46.940436 V 326.94043 h 54.382803 v -120 h 18.78711 c 12.52468,0 21.25918,2.53295 26.20313,7.59961 5.27355,5.06667 7.91015,14.00078 7.91015,26.80078 v 51.19922 c 0,10.40001 0.60073,30.83397 1.25977,34.83399 4.58143,33.89939 27.3249,60.21258 75.32321,60.2043 v 19.31639 l 33.87817,-45.6213 -33.87817,-41.26876 v 19.09096 c -7.06007,0.25015 -20.70615,0.25015 -23.9111,-16.83292 -0.65919,-5.33673 -0.93058,-21.32247 -0.98828,-29.32227 l -0.35547,-49.19922 c -0.0746,-10.3415 0.25353,-29.73295 -5.34961,-39.59961 -5.27356,-9.86667 -14.50167,-16.40156 -27.68555,-19.60156 v -0.79883 c 23.73097,-7.73333 33.03517,-25.83422 33.03517,-54.90089 V 111.2982 c 0,-19.203481 -6.02275,-36.301083 -18.19478,-48.24083 C 213.00375,52.390704 194.04315,46.940436 166.02741,46.940436 Z m 54.382803,40 h 24.7207 c 9.5583,0 16.47891,2.267451 20.76368,6.800781 4.61435,4.53333 6.92187,11.866683 6.92187,21.999993 v 21.59961 c 0,10.66667 -2.80116,18.26745 -8.40429,22.80078 -5.27356,4.53333 -13.34987,6.79883 -24.22657,6.79883 h -19.77539 z" />
    </g>
  </g>
</svg>
